<?xml version="1.0" encoding="utf-8"?>
<!-- Generator: Adobe Illustrator 25.4.1, SVG Export Plug-In . SVG Version: 6.00 Build 0)  -->
<svg version="1.0" id="katman_1" xmlns="http://www.w3.org/2000/svg" xmlns:xlink="http://www.w3.org/1999/xlink" x="0px" y="0px"
	 viewBox="0 0 1024 768" style="enable-background:new 0 0 1024 768;" xml:space="preserve">
<style type="text/css">
	.st0{fill:#1D1D1B;}
</style>
<g>
	<g>
		<path class="st0" d="M779.7,352.2h-61.2c-12.9,0-25.8-9.7-29-22.5l-12.9-35.4c-6.4-9.7-3.2-25.8,6.4-35.4L725,217
			c9.7-9.7,9.7-22.5,0-32.2l-12.9-12.9c-9.7-9.7-22.5-9.7-32.2,0L638,213.7c-9.7,9.7-25.8,9.7-35.4,3.2l-35.4-16.1
			c-12.9-3.2-22.5-16.1-22.5-29v-54.7c0-12.9-9.7-22.5-22.5-22.5h-19.3c-12.9,0-22.5,9.7-22.5,22.5v54.7c0,12.9-9.7,25.8-22.5,29
			L419.1,217c-9.7,6.4-25.8,3.2-35.4-6.4l-38.6-38.6c-9.7-9.7-22.5-9.7-32.2,0L300,184.8c-9.7,9.7-9.7,22.5,0,32.2l38.6,38.6
			c9.7,9.7,9.7,25.8,3.2,35.4l-16.1,38.6c-3.2,12.9-16.1,22.5-29,22.5h-51.5c-12.9,0-22.5,9.7-22.5,22.5V394
			c0,12.9,9.7,22.5,22.5,22.5h51.5c12.9,0,25.8,9.7,29,22.5l16.1,38.6c6.4,9.7,3.2,25.8-3.2,35.4L300,551.8
			c-9.7,9.7-9.7,22.5,0,32.2l12.9,12.9c9.7,9.7,22.5,9.7,32.2,0l38.6-38.6c9.7-9.7,25.8-9.7,35.4-6.4l38.6,16.1
			c12.9,3.2,22.5,16.1,22.5,29v54.7c0,12.9,9.7,22.5,22.5,22.5h19.3c12.9,0,22.5-9.7,22.5-22.5v-54.7c0-12.9,9.7-25.8,22.5-29
			l35.4-16.1c9.7-6.4,25.8-3.2,35.4,3.2l41.9,41.9c9.7,9.7,22.5,9.7,32.2,0L725,584c9.7-9.7,9.7-22.5,0-32.2l-41.9-41.9
			c-9.7-9.7-9.7-25.8-6.4-35.4l12.9-35.4c3.2-12.9,16.1-22.5,29-22.5h61.2c12.9,0,22.5-9.7,22.5-22.5v-19.3
			C802.2,361.8,792.6,352.2,779.7,352.2z M634.8,387.6c0,70.8-57.9,125.6-125.6,125.6c-70.8,0-125.6-57.9-125.6-125.6
			S438.4,262,509.3,262S634.8,316.8,634.8,387.6z"/>
	</g>
</g>
</svg>
